<?xml version="1.0" standalone="no"?><!DOCTYPE svg PUBLIC "-//W3C//DTD SVG 1.1//EN" "http://www.w3.org/Graphics/SVG/1.1/DTD/svg11.dtd"><svg t="1558277365345" class="icon" style="" viewBox="0 0 1024 1024" version="1.1" xmlns="http://www.w3.org/2000/svg" p-id="2158" xmlns:xlink="http://www.w3.org/1999/xlink" width="200" height="200"><defs><style type="text/css"></style></defs><path d="M424.96 284.16c-5.12-5.12-12.8-5.12-20.48 0-5.12 2.56-10.24 10.24-10.24 17.92V742.4c0 7.68 5.12 12.8 10.24 17.92 2.56 2.56 5.12 2.56 7.68 2.56 5.12 0 7.68-2.56 10.24-2.56l307.2-225.28c5.12-2.56 7.68-10.24 7.68-15.36 0-5.12-2.56-12.8-7.68-15.36l-304.64-220.16z m0 0" fill="#ffffff" p-id="2159"></path><path d="M512 1024C230.4 1024 0 793.6 0 512S230.4 0 512 0s512 230.4 512 512-230.4 512-512 512z m0-972.8C258.56 51.2 51.2 258.56 51.2 512s207.36 460.8 460.8 460.8 460.8-207.36 460.8-460.8S765.44 51.2 512 51.2z m0 0" fill="#ffffff" p-id="2160"></path></svg>